P3
100 50
255
38 38 38 38 38 38 38 38 38 38 38 38 38 38 38 38 38 38 38 38 38 
38 38 38 38 38 38 38 38 38 38 38 38 38 38 38 38 38 38 38 38 38 
38 38 38 38 38 38 38 38 38 38 38 38 38 38 38 38 38 38 38 38 38 
38 38 38 38 38 38 38 38 38 38 38 38 38 38 38 38 38 38 38 38 38 
38 38 38 38 38 38 38 38 38 38 38 38 38 38 38 38 38 38 38 38 38 
38 38 38 38 38 38 38 38 38 38 38 38 38 38 38 38 38 38 38 38 38 
38 38 38 38 38 38 38 38 38 38 38 38 38 38 38 38 38 38 38 38 38 
38 38 38 38 38 38 38 38 38 38 38 38 38 38 38 38 38 38 38 38 38 
38 38 38 38 38 38 38 38 38 38 38 38 38 38 38 38 38 38 38 38 38 
38 38 38 38 38 38 38 38 38 38 38 38 38 38 38 38 38 38 38 38 38 
38 38 38 38 38 38 38 38 38 38 38 38 38 38 38 38 38 38 38 38 38 
38 38 38 38 38 38 38 38 38 38 38 38 38 38 38 38 38 38 38 38 38 
38 38 38 38 38 38 38 38 38 38 38 38 38 38 38 38 38 38 38 38 38 
38 38 38 38 38 38 38 38 38 38 38 38 38 38 38 38 38 38 38 38 38 
38 38 38 38 38 38 38 38 38 38 38 38 38 38 38 38 38 38 38 38 38 
38 38 38 38 38 38 38 38 38 38 38 38 38 38 38 38 38 38 38 38 38 
38 38 38 38 38 38 38 38 38 38 38 38 38 38 38 38 38 38 38 38 38 
38 38 38 38 38 38 38 38 38 38 38 38 38 38 38 38 38 38 38 38 38 
38 38 38 38 38 38 38 38 38 38 38 38 38 38 38 38 38 38 38 38 38 
38 38 38 38 38 38 38 38 38 38 38 38 38 38 38 38 38 38 38 38 38 
38 38 38 38 38 38 38 38 38 38 38 38 38 38 38 38 38 38 38 38 38 
38 38 38 38 38 38 38 38 38 38 38 38 38 38 38 38 38 38 38 38 38 
38 38 38 38 38 38 38 38 38 38 38 38 38 38 38 38 38 38 38 38 38 
38 38 38 38 38 38 38 38 38 38 38 38 38 38 38 38 38 38 38 38 38 
38 38 38 38 38 38 38 38 38 38 38 38 38 38 38 38 38 38 38 38 38 
38 38 38 38 38 38 38 38 38 38 38 38 38 38 38 38 38 38 38 38 38 
38 38 38 38 38 38 38 38 38 38 38 38 38 38 38 38 38 38 38 38 38 
38 38 38 38 38 38 38 38 38 38 38 38 38 38 38 38 38 38 38 38 38 
38 38 38 38 38 38 38 38 38 38 38 38 38 38 38 38 38 38 38 38 38 
38 38 38 38 38 38 38 38 38 38 38 38 38 38 38 38 38 38 38 38 38 
38 38 38 38 38 38 38 38 38 38 38 38 38 38 38 38 38 38 38 38 38 
38 38 38 38 38 38 38 38 38 38 38 38 38 38 38 38 38 38 38 38 38 
38 38 38 38 38 38 38 38 38 38 38 38 38 38 38 38 38 38 38 38 38 
38 38 38 38 38 38 38 38 38 38 38 38 38 38 38 38 38 38 38 38 38 
38 38 38 38 38 38 38 38 38 38 38 38 38 38 38 38 38 38 38 38 38 
38 38 38 38 38 38 38 38 38 38 38 38 38 38 38 38 38 38 38 38 38 
38 38 38 38 38 38 38 38 38 38 38 38 38 38 38 38 38 38 38 38 38 
38 38 38 38 38 38 38 38 38 38 38 38 38 38 38 38 38 38 38 38 38 
38 38 38 38 38 38 38 38 38 38 38 38 38 38 38 38 38 38 38 38 38 
38 38 38 38 38 38 38 38 38 38 38 38 38 38 38 38 38 38 38 38 38 
38 38 38 38 38 38 38 38 38 38 38 38 38 38 38 38 38 38 38 38 38 
38 38 38 38 38 38 38 38 38 38 38 38 38 38 38 38 38 38 38 38 38 
38 38 38 38 38 38 38 38 38 38 38 38 38 38 38 38 38 38 38 38 38 
38 38 38 38 38 38 38 38 38 38 38 38 38 38 38 38 38 38 38 38 38 
38 38 38 38 38 38 38 38 38 38 38 38 38 38 38 38 38 38 38 38 38 
38 38 38 38 38 38 38 38 38 38 38 38 38 38 38 38 38 38 38 38 38 
38 38 38 38 38 38 38 38 38 38 38 38 38 38 38 38 38 38 38 38 38 
38 38 38 38 38 38 38 38 38 38 38 38 38 38 38 38 38 38 38 38 38 
38 38 38 38 38 38 38 38 38 38 38 38 38 38 38 38 38 38 38 38 38 
38 38 38 38 38 38 38 38 38 38 38 38 38 38 38 38 38 38 38 38 38 
38 38 38 38 38 38 38 38 38 38 38 38 38 38 38 38 38 38 38 38 38 
38 38 38 38 38 38 38 38 38 38 38 38 38 38 38 38 38 38 38 38 38 
38 38 38 38 38 38 38 38 38 38 38 38 38 38 38 38 38 38 38 38 38 
38 38 38 38 38 38 38 38 38 38 38 38 38 38 38 38 38 38 38 38 38 
38 38 38 38 38 38 38 38 38 38 38 38 38 38 38 38 38 38 38 38 38 
38 38 38 38 38 38 38 38 38 38 38 38 38 38 38 38 38 38 38 38 38 
38 38 38 38 38 38 38 38 38 38 38 38 38 38 38 38 38 38 38 38 38 
38 38 38 38 38 38 38 38 38 38 38 38 38 38 38 38 38 38 38 38 38 
38 38 38 38 38 38 38 38 38 38 38 38 38 38 38 38 38 38 38 38 38 
38 38 38 38 38 38 38 38 38 38 38 38 38 38 38 38 38 38 38 38 38 
38 38 38 38 38 38 38 38 38 38 38 38 38 38 38 38 38 38 38 38 38 
38 38 38 38 38 38 38 38 38 38 38 38 38 38 38 38 38 38 38 38 38 
38 38 38 38 38 38 38 38 38 38 38 38 38 38 38 38 38 38 38 38 38 
38 38 38 38 38 38 38 38 38 38 38 38 38 38 38 38 38 38 38 38 38 
38 38 38 38 38 38 38 38 38 38 38 38 38 38 38 38 38 38 38 38 38 
38 38 38 38 38 38 38 38 38 38 38 38 38 38 38 38 38 38 38 38 38 
38 38 38 38 38 38 38 38 38 38 38 38 38 38 38 38 38 38 38 38 38 
38 38 38 38 38 38 38 38 38 38 38 38 38 38 38 38 38 38 38 38 38 
38 38 38 38 38 38 38 38 38 38 38 38 38 38 38 38 38 38 38 38 38 
38 38 38 38 38 38 38 38 38 38 38 38 38 38 38 38 38 38 38 38 38 
38 38 38 38 38 38 38 38 38 38 38 38 38 38 38 38 38 38 38 38 38 
38 38 38 38 38 38 38 38 38 38 38 38 38 38 38 38 38 38 38 38 38 
38 38 38 38 38 38 38 38 38 38 38 38 38 38 38 38 38 38 38 38 38 
38 38 38 38 38 38 38 38 38 38 38 38 38 38 38 38 38 38 38 38 38 
38 38 38 38 38 38 38 38 38 38 38 38 38 38 38 38 38 38 38 38 38 
38 38 38 38 38 38 38 38 38 38 38 38 38 38 38 38 38 38 38 38 38 
38 38 38 38 38 38 38 38 38 38 38 38 38 38 38 38 38 38 38 38 38 
38 38 38 38 38 38 38 38 38 38 38 38 38 38 38 38 38 38 38 38 38 
38 38 38 38 38 38 38 38 38 38 38 38 38 38 38 38 38 38 38 38 38 
38 38 38 38 38 38 38 38 38 38 38 38 38 38 38 38 38 38 38 38 38 
38 38 38 38 38 38 38 38 38 38 38 38 38 38 38 38 38 38 38 38 38 
38 38 38 38 38 38 38 38 38 38 38 38 38 38 38 38 38 38 38 38 38 
38 38 38 38 38 38 38 38 38 38 38 38 38 38 38 38 38 38 38 38 38 
38 38 38 38 38 38 38 38 38 38 38 38 38 38 38 38 38 38 38 38 38 
38 38 38 38 38 38 38 38 38 38 38 38 38 38 38 38 38 38 38 38 38 
38 38 38 38 38 38 38 38 38 38 38 38 38 38 38 38 38 38 38 38 38 
38 38 38 38 38 38 38 38 38 38 38 38 38 38 38 38 38 38 38 38 38 
38 38 38 38 38 38 38 38 38 38 38 38 38 38 38 38 38 38 38 38 38 
38 38 38 38 38 38 38 38 38 38 38 38 38 38 38 38 38 38 38 38 38 
38 38 38 38 38 38 38 38 38 38 38 38 38 38 38 38 38 38 38 38 38 
38 38 38 38 38 38 38 38 38 38 38 38 38 38 38 38 38 38 38 38 38 
38 38 38 38 38 38 38 38 38 38 38 38 38 38 38 38 38 38 38 38 38 
38 38 38 38 38 38 38 38 38 38 38 38 38 38 38 38 38 38 38 38 38 
38 38 38 38 38 38 38 38 38 38 38 38 38 38 38 38 38 38 38 38 38 
38 38 38 38 38 38 38 38 38 38 38 38 38 38 38 38 38 38 38 38 38 
38 38 38 38 38 38 38 38 38 38 38 38 38 38 38 38 38 38 38 38 38 
38 38 38 38 38 38 38 38 38 38 38 38 38 38 38 38 38 38 38 38 38 
38 38 38 38 38 38 38 38 38 38 38 38 38 38 38 38 38 38 38 38 38 
38 38 38 38 38 38 38 38 38 38 38 38 38 38 38 38 38 38 38 38 38 
38 38 38 38 38 38 38 38 38 38 38 38 38 38 38 38 38 38 38 38 38 
38 38 38 38 38 38 38 38 38 38 38 38 38 38 38 38 38 38 38 38 38 
38 38 38 38 38 38 38 38 38 38 38 38 38 38 38 38 38 38 38 38 38 
38 38 38 38 38 38 38 38 38 38 38 38 38 38 38 38 38 38 38 38 38 
38 38 38 38 38 38 38 38 38 38 38 38 38 38 38 38 38 38 38 38 38 
38 38 38 38 38 38 38 38 38 38 38 38 38 38 38 38 38 38 38 38 38 
38 38 38 38 38 38 38 38 38 38 38 38 38 38 38 38 38 38 38 38 38 
38 38 38 38 38 38 38 38 38 38 38 38 38 38 38 38 38 38 38 38 38 
38 38 38 38 38 38 38 38 38 38 38 38 38 38 38 38 38 38 38 38 38 
38 38 38 38 38 38 38 38 38 38 38 38 38 38 38 38 38 38 38 38 38 
38 38 38 38 38 38 38 38 38 38 38 38 38 38 38 38 38 38 38 38 38 
38 38 38 38 38 38 38 38 38 38 38 38 38 38 38 38 38 38 38 38 38 
38 38 38 38 38 38 38 38 38 38 38 38 38 38 38 38 38 38 38 38 38 
38 38 38 38 38 38 38 38 38 38 38 38 38 38 38 38 38 38 38 38 38 
38 38 38 38 38 38 38 38 38 38 38 38 38 38 38 38 38 38 38 38 38 
38 38 38 38 38 38 38 38 38 38 38 38 38 38 38 38 38 38 38 38 38 
38 38 38 38 38 38 38 38 38 38 38 38 38 38 38 38 38 38 38 38 38 
38 38 38 38 38 38 38 38 38 38 38 38 38 38 38 38 38 38 38 38 38 
38 38 38 38 38 38 38 38 38 38 38 38 38 38 38 38 38 38 38 38 38 
38 38 38 38 38 38 38 38 38 38 38 38 38 38 38 38 38 38 38 38 38 
38 38 38 38 38 38 38 38 38 38 38 38 38 38 38 38 38 38 38 38 38 
38 38 38 38 38 38 38 38 38 38 38 38 38 38 38 38 38 38 38 38 38 
38 38 38 38 38 38 38 38 38 38 38 38 38 38 38 38 38 38 38 38 38 
38 38 38 38 38 38 38 38 38 38 38 38 38 38 38 38 38 38 38 38 38 
38 38 38 38 38 38 38 38 38 38 38 38 38 38 38 38 38 38 38 38 38 
38 38 38 38 38 38 38 38 38 38 38 38 38 38 38 38 38 38 38 38 38 
38 38 38 38 38 38 38 38 38 38 38 38 38 38 38 38 38 38 38 38 38 
38 38 38 38 38 38 38 38 38 38 38 38 38 38 38 38 38 38 38 38 38 
38 38 38 38 38 38 38 38 38 38 38 38 38 38 38 38 38 38 38 38 38 
38 38 38 38 38 38 38 38 38 38 38 38 38 38 38 38 38 38 38 38 38 
38 38 38 38 38 38 38 38 38 38 38 38 38 38 38 38 38 38 38 38 38 
38 38 38 38 38 38 38 38 38 38 38 38 38 38 38 38 38 38 38 38 38 
38 38 38 38 38 38 38 38 38 38 38 38 38 38 38 38 38 38 38 38 38 
38 38 38 38 38 38 38 38 38 38 38 38 38 38 38 38 38 38 38 38 38 
38 38 38 38 38 38 38 38 38 38 38 38 38 38 38 38 38 38 38 38 38 
38 38 38 38 38 38 38 38 38 38 38 38 38 38 38 38 38 38 38 38 38 
38 38 38 38 38 38 38 38 38 38 38 38 38 38 38 38 38 38 38 38 38 
38 38 38 38 38 38 38 38 38 38 38 38 38 38 38 38 38 38 38 38 38 
38 38 38 38 38 38 38 38 38 38 38 38 38 38 38 38 38 38 38 38 38 
38 38 38 38 38 38 38 38 38 38 38 38 38 38 38 38 38 38 38 38 38 
38 38 38 38 38 38 38 38 38 38 38 38 38 38 38 38 38 38 38 38 38 
38 38 38 38 38 38 38 38 38 38 38 38 38 38 38 38 38 38 38 38 38 
38 38 38 38 38 38 38 38 38 38 38 38 38 38 38 38 38 38 38 38 38 
38 38 38 38 38 38 38 38 38 38 38 38 38 38 38 38 38 38 38 38 38 
38 38 38 38 38 38 38 38 38 38 38 38 38 38 38 38 38 38 38 38 38 
38 38 38 38 38 38 38 38 38 38 38 38 38 38 38 38 38 38 38 38 38 
38 38 38 38 38 38 38 38 38 38 38 38 38 38 38 38 38 38 38 38 38 
38 38 38 38 38 38 38 38 38 38 38 38 38 38 38 38 38 38 38 38 38 
38 38 38 38 38 38 38 38 38 38 38 38 38 38 38 38 38 38 38 38 38 
38 38 38 38 38 38 38 38 38 38 38 38 38 38 38 38 38 38 38 38 38 
38 38 38 38 38 38 38 38 38 38 38 38 38 38 38 38 38 38 38 38 38 
38 38 38 38 38 38 38 38 38 38 38 38 38 38 38 38 38 38 38 38 38 
38 38 38 38 38 38 38 38 38 38 38 38 38 38 38 38 38 38 38 38 38 
38 38 38 38 38 38 38 38 38 38 38 38 38 38 38 38 38 38 38 38 38 
38 38 38 38 38 38 38 38 38 38 38 38 38 38 38 38 38 38 38 38 38 
38 38 38 38 38 38 38 38 38 38 38 38 38 38 38 38 38 38 38 38 38 
38 38 38 38 38 38 38 38 38 38 38 38 38 38 38 38 38 38 38 38 38 
38 38 38 38 38 38 38 38 38 38 38 38 38 38 38 38 38 38 38 38 38 
38 38 38 38 38 38 38 38 38 38 38 38 38 38 38 38 38 38 38 38 38 
38 38 38 38 38 38 38 38 38 38 38 38 38 38 38 38 38 38 38 38 38 
38 38 38 38 38 38 38 38 38 38 38 38 38 38 38 38 38 38 38 38 38 
38 38 38 38 38 38 38 38 38 38 38 38 38 38 38 38 38 38 38 38 38 
38 38 38 38 38 38 38 38 38 38 38 38 38 38 38 38 38 38 38 38 38 
38 38 38 38 38 38 38 38 38 38 38 38 38 38 38 38 38 38 38 38 38 
38 38 38 38 38 38 38 38 38 38 38 38 38 38 38 38 38 38 38 38 38 
38 38 38 38 38 38 248 24 62 251 25 63 250 24 63 247 24 62 243 24 61 
238 23 60 232 23 58 224 22 56 215 21 54 38 38 38 38 38 38 38 38 38 
38 38 38 38 38 38 38 38 38 38 38 38 38 38 38 38 38 38 38 38 38 
38 38 38 38 38 38 38 38 38 38 38 38 38 38 38 38 38 38 38 38 38 
38 38 38 38 38 38 38 38 38 38 38 38 38 38 38 38 38 38 38 38 38 
38 38 38 38 38 38 38 38 38 38 38 38 38 38 38 38 38 38 38 38 38 
38 38 38 38 38 38 38 38 38 38 38 38 38 38 38 38 38 38 38 38 38 
38 38 38 38 38 38 38 38 38 38 38 38 38 38 38 38 38 38 38 38 38 
38 38 38 38 38 38 38 38 38 38 38 38 38 38 38 38 38 38 38 38 38 
38 38 38 38 38 38 38 38 38 38 38 38 38 38 38 38 38 38 38 38 38 
38 38 38 38 38 38 38 38 38 38 38 38 38 38 38 38 38 38 38 38 38 
38 38 38 38 38 38 38 38 38 38 38 38 38 38 38 38 38 38 38 38 38 
38 38 38 38 38 38 38 38 38 38 38 38 38 38 38 38 38 38 38 38 38 
38 38 38 38 38 38 38 38 38 38 38 38 38 38 38 38 38 38 38 38 38 
38 38 38 38 38 38 253 25 64 255 25 64 254 25 64 252 25 63 249 24 63 
246 24 62 241 24 61 236 23 59 231 23 58 225 22 56 218 21 55 210 21 53 
200 20 50 187 18 47 38 38 38 38 38 38 38 38 38 38 38 38 38 38 38 
38 38 38 38 38 38 38 38 38 38 38 38 38 38 38 38 38 38 38 38 38 
38 38 38 38 38 38 38 38 38 38 38 38 38 38 38 38 38 38 38 38 38 
38 38 38 38 38 38 38 38 38 38 38 38 38 38 38 38 38 38 38 38 38 
38 38 38 38 38 38 38 38 38 38 38 38 38 38 38 38 38 38 38 38 38 
38 38 38 38 38 38 38 38 38 38 38 38 38 38 38 38 38 38 38 38 38 
38 38 38 38 38 38 38 38 38 38 38 38 38 38 38 38 38 38 38 38 38 
38 38 38 38 38 38 38 38 38 38 38 38 38 38 38 38 38 38 38 38 38 
38 38 38 38 38 38 38 38 38 38 38 38 38 38 38 38 38 38 38 38 38 
38 38 38 38 38 38 38 38 38 38 38 38 38 38 38 38 38 38 38 38 38 
38 38 38 38 38 38 38 38 38 38 38 38 38 38 38 38 38 38 38 38 38 
38 38 38 38 38 38 38 38 38 38 38 38 38 38 38 38 38 38 38 38 38 
38 38 38 38 38 38 249 24 62 253 25 63 253 25 64 252 25 63 250 25 63 
248 24 62 244 24 61 241 24 60 236 23 59 231 23 58 226 22 57 220 22 55 
214 21 54 207 20 52 199 20 50 190 19 48 179 18 45 162 16 41 38 38 38 
38 38 38 38 38 38 38 38 38 38 38 38 38 38 38 38 38 38 38 38 38 
38 38 38 38 38 38 38 38 38 38 38 38 38 38 38 38 38 38 38 38 38 
38 38 38 38 38 38 38 38 38 38 38 38 38 38 38 38 38 38 38 38 38 
38 38 38 38 38 38 38 38 38 38 38 38 38 38 38 38 38 38 38 38 38 
38 38 38 38 38 38 38 38 38 38 38 38 38 38 38 38 38 38 38 38 38 
38 38 38 38 38 38 38 38 38 38 38 38 38 38 38 38 38 38 38 38 38 
38 38 38 38 38 38 38 38 38 38 38 38 38 38 38 38 38 38 38 38 38 
38 38 38 38 38 38 38 38 38 38 38 38 38 38 38 38 38 38 38 38 38 
38 38 38 38 38 38 38 38 38 38 38 38 38 38 38 38 38 38 38 38 38 
38 38 38 38 38 38 38 38 38 38 38 38 38 38 38 38 38 38 38 38 38 
38 38 38 38 38 38 38 38 38 38 38 38 38 38 38 38 38 38 38 38 38 
38 38 38 38 38 38 38 38 38 246 24 62 249 24 62 249 24 63 248 24 62 
247 24 62 244 24 61 241 24 61 238 23 60 234 23 59 230 23 58 225 22 56 
220 22 55 214 21 54 208 20 52 202 20 51 194 19 49 186 18 47 177 17 44 
166 16 42 152 15 38 38 38 38 38 38 38 38 38 38 38 38 38 38 38 38 
38 38 38 38 38 38 38 38 38 38 38 38 38 38 38 38 38 38 38 38 38 
38 38 38 38 38 38 38 38 38 38 38 38 38 38 38 38 38 38 38 38 38 
38 38 38 38 38 38 38 38 38 38 38 38 38 38 38 38 38 38 38 38 38 
38 38 38 38 38 38 38 38 38 38 38 38 38 38 38 38 38 38 38 38 38 
38 38 38 38 38 38 38 38 38 38 38 38 38 38 38 38 38 38 38 38 38 
38 38 38 38 38 38 38 38 38 38 38 38 38 38 38 38 38 38 38 38 38 
38 38 38 38 38 38 38 38 38 38 38 38 38 38 38 38 38 38 38 38 38 
38 38 38 38 38 38 38 38 38 38 38 38 38 38 38 38 38 38 38 38 38 
38 38 38 38 38 38 38 38 38 38 38 38 38 38 38 38 38 38 38 38 38 
38 38 38 38 38 38 38 38 38 38 38 38 38 38 38 38 38 38 38 38 38 
38 38 38 38 38 38 38 38 38 38 38 38 240 24 60 243 24 61 244 24 61 
243 24 61 242 24 61 240 23 60 237 23 59 234 23 59 230 23 58 226 22 57 
222 22 56 218 21 55 212 21 53 207 20 52 201 20 51 195 19 49 188 18 47 
181 18 45 172 17 43 163 16 41 152 15 38 137 13 34 38 38 38 38 38 38 
38 38 38 38 38 38 38 38 38 38 38 38 38 38 38 38 38 38 38 38 38 
38 38 38 38 38 38 38 38 38 38 38 38 38 38 38 38 38 38 38 38 38 
38 38 38 38 38 38 38 38 38 38 38 38 38 38 38 38 38 38 38 38 38 
38 38 38 38 38 38 38 38 38 38 38 38 38 38 38 38 38 38 38 38 38 
38 38 38 38 38 38 38 38 38 38 38 38 38 38 38 38 38 38 38 38 38 
38 38 38 38 38 38 38 38 38 38 38 38 38 38 38 38 38 38 38 38 38 
38 38 38 38 38 38 38 38 38 38 38 38 38 38 38 38 38 38 38 38 38 
38 38 38 38 38 38 38 38 38 38 38 38 38 38 38 38 38 38 38 38 38 
38 38 38 38 38 38 38 38 38 38 38 38 38 38 38 38 38 38 38 38 38 
38 38 38 38 38 38 38 38 38 38 38 38 38 38 38 38 38 38 38 38 38 
38 38 38 38 38 38 38 38 38 38 38 38 38 38 38 232 23 58 236 23 59 
237 23 59 237 23 59 236 23 59 234 23 59 232 23 58 229 22 57 226 23 57 
223 22 56 218 21 55 214 21 54 209 21 53 204 20 51 199 20 50 194 19 49 
187 18 47 181 18 45 174 17 44 166 16 42 157 15 39 148 14 37 136 13 34 
120 12 30 38 38 38 38 38 38 38 38 38 38 38 38 38 38 38 38 38 38 
38 38 38 38 38 38 38 38 38 38 38 38 38 38 38 38 38 38 38 38 38 
38 38 38 38 38 38 38 38 38 38 38 38 38 38 38 38 38 38 38 38 38 
38 38 38 38 38 38 38 38 38 38 38 38 38 38 38 38 38 38 38 38 38 
38 38 38 38 38 38 38 38 38 38 38 38 38 38 38 38 38 38 38 38 38 
38 38 38 38 38 38 38 38 38 38 38 38 38 38 38 38 38 38 38 38 38 
38 38 38 38 38 38 38 38 38 38 38 38 38 38 38 38 38 38 38 38 38 
38 38 38 38 38 38 38 38 38 38 38 38 38 38 38 38 38 38 38 38 38 
38 38 38 38 38 38 38 38 38 38 38 38 38 38 38 38 38 38 38 38 38 
38 38 38 38 38 38 38 38 38 38 38 38 38 38 38 38 38 38 38 38 38 
38 38 38 38 38 38 38 38 38 38 38 38 38 38 38 38 38 38 222 22 56 
227 22 57 229 22 57 229 22 58 229 22 57 227 22 57 225 22 57 223 22 56 
234 35 69 255 113 146 255 70 103 212 23 55 205 20 52 201 20 50 
196 19 49 191 19 48 185 18 46 179 18 45 173 17 43 166 16 42 159 16 40 
150 15 38 141 14 35 131 13 33 118 12 30 101 10 25 38 38 38 38 38 38 
38 38 38 38 38 38 38 38 38 38 38 38 38 38 38 38 38 38 38 38 38 
38 38 38 38 38 38 38 38 38 38 38 38 38 38 38 38 38 38 38 38 38 
38 38 38 38 38 38 38 38 38 38 38 38 38 38 38 38 38 38 38 38 38 
38 38 38 38 38 38 38 38 38 38 38 38 38 38 38 38 38 38 38 38 38 
38 38 38 38 38 38 38 38 38 38 38 38 38 38 38 38 38 38 38 38 38 
38 38 38 38 38 38 38 38 38 38 38 38 38 38 38 38 38 38 38 38 38 
38 38 38 38 38 38 38 38 38 38 38 38 38 38 38 38 38 38 38 38 38 
38 38 38 38 38 38 38 38 38 38 38 38 38 38 38 38 38 38 38 38 38 
38 38 38 38 38 38 38 38 38 38 38 38 38 38 38 38 38 38 38 38 38 
38 38 38 38 38 38 38 38 38 38 38 38 38 38 38 38 38 38 38 38 38 
38 38 38 209 20 52 217 21 54 220 22 55 221 22 56 221 22 55 220 22 55 
219 21 55 217 21 54 216 23 56 255 89 121 255 200 232 252 67 99 
202 21 52 196 19 49 192 19 48 187 18 47 182 18 46 177 17 44 171 17 43 
164 16 41 158 15 40 151 15 38 143 14 36 134 13 34 124 12 31 113 11 28 
99 10 25 77 8 19 38 38 38 38 38 38 38 38 38 38 38 38 38 38 38 
38 38 38 38 38 38 38 38 38 38 38 38 38 38 38 38 38 38 38 38 38 
38 38 38 38 38 38 38 38 38 38 38 38 38 38 38 38 38 38 38 38 38 
38 38 38 38 38 38 38 38 38 38 38 38 38 38 38 38 38 38 38 38 38 
38 38 38 38 38 38 38 38 38 38 38 38 38 38 38 84 84 84 84 84 84 
84 84 84 84 84 84 84 84 84 84 84 84 84 84 84 84 84 84 84 84 84 
84 84 84 84 84 84 84 84 84 84 84 84 84 84 84 84 84 84 84 84 84 
84 84 84 84 84 84 84 84 84 84 84 84 84 84 84 84 84 84 84 84 84 
84 84 84 84 84 84 84 84 84 84 84 84 84 84 84 84 84 84 84 84 84 
84 84 84 84 84 84 84 84 84 84 84 84 84 84 84 84 84 84 84 84 84 
84 84 84 84 84 84 84 84 84 84 84 84 205 20 51 210 21 53 212 21 53 
212 21 53 212 21 53 211 21 53 209 21 53 207 20 52 205 20 52 207 25 56 
205 26 57 196 20 50 191 19 48 187 18 47 183 18 46 178 17 45 173 17 43 
167 16 42 162 16 41 156 15 39 149 15 37 142 14 36 135 13 34 126 12 32 
117 11 29 107 10 27 94 9 24 78 8 20 81 81 81 81 81 81 81 81 81 
81 81 81 81 81 81 81 81 81 81 81 81 81 81 81 81 81 81 80 80 80 
80 80 80 80 80 80 80 80 80 80 80 80 80 80 80 80 80 80 80 80 80 
80 80 80 79 79 79 79 79 79 79 79 79 79 79 79 79 79 79 79 79 79 
79 79 79 79 79 79 78 78 78 78 78 78 78 78 78 78 78 78 78 78 78 
84 84 84 85 85 85 85 85 85 85 85 85 85 85 85 85 85 85 85 85 85 
85 85 85 85 85 85 85 85 85 85 85 85 85 85 85 85 85 85 85 85 85 
85 85 85 85 85 85 85 85 85 85 85 85 85 85 85 85 85 85 85 85 85 
85 85 85 85 85 85 85 85 85 85 85 85 85 85 85 85 85 85 85 85 85 
84 84 84 84 84 84 84 84 84 84 84 84 84 84 84 84 84 84 84 84 84 
84 84 84 84 84 84 84 84 84 84 84 84 84 84 84 189 19 48 198 19 50 
201 20 51 203 20 51 203 20 51 203 20 51 201 20 51 200 20 50 198 19 50 
195 19 49 192 19 48 189 19 47 185 18 47 182 18 46 177 17 45 173 17 43 
168 17 42 163 16 41 158 16 40 152 15 38 146 14 37 140 14 35 133 13 33 
126 12 32 118 12 30 109 11 27 99 10 25 87 9 22 73 7 18 51 5 13 
82 82 82 81 81 81 81 81 81 81 81 81 81 81 81 81 81 81 81 81 81 
81 81 81 81 81 81 81 81 81 80 80 80 80 80 80 80 80 80 80 80 80 
80 80 80 80 80 80 80 80 80 80 80 80 80 80 80 79 79 79 79 79 79 
79 79 79 79 79 79 79 79 79 79 79 79 79 79 79 79 79 79 79 79 79 
78 78 78 78 78 78 85 85 85 85 85 85 85 85 85 85 85 85 85 85 85 
85 85 85 85 85 85 85 85 85 85 85 85 85 85 85 85 85 85 85 85 85 
85 85 85 85 85 85 85 85 85 85 85 85 85 85 85 85 85 85 142 60 225 
142 60 225 141 59 223 139 58 219 136 57 215 132 56 209 128 54 203 
123 52 194 85 85 85 85 85 85 85 85 85 85 85 85 85 85 85 85 85 85 
85 85 85 85 85 85 85 85 85 84 84 84 84 84 84 84 84 84 84 84 84 
84 84 84 183 18 46 190 19 48 192 19 48 193 19 49 194 19 49 193 19 48 
192 19 48 190 19 48 188 18 47 185 18 46 182 18 46 179 18 45 175 17 44 
172 17 43 168 16 42 163 16 41 159 16 40 154 15 39 148 15 37 143 14 36 
137 13 34 131 13 33 124 12 31 117 11 29 109 11 27 100 10 25 91 9 23 
80 8 20 66 7 17 49 5 12 82 82 82 82 82 82 82 82 82 82 82 82 81 81 81 
81 81 81 81 81 81 81 81 81 81 81 81 81 81 81 81 81 81 81 81 81 
81 81 81 80 80 80 80 80 80 80 80 80 80 80 80 80 80 80 80 80 80 
80 80 80 80 80 80 80 80 80 79 79 79 79 79 79 79 79 79 79 79 79 
79 79 79 79 79 79 79 79 79 79 79 79 85 85 85 85 85 85 85 85 85 
85 85 85 85 85 85 85 85 85 85 85 85 85 85 85 85 85 85 85 85 85 
85 85 85 85 85 85 85 85 85 85 85 85 85 85 85 85 85 85 142 59 224 
142 60 224 141 59 223 140 59 221 138 58 217 135 57 214 132 56 209 
129 54 204 126 53 198 121 51 192 117 49 184 111 47 175 102 43 161 
85 85 85 85 85 85 85 85 85 85 85 85 85 85 85 85 85 85 85 85 85 
85 85 85 85 85 85 85 85 85 162 16 41 175 17 44 180 18 45 183 18 46 
183 18 46 183 18 46 183 18 46 181 18 46 180 18 45 177 17 45 175 17 44 
172 17 43 169 17 42 165 16 42 162 16 41 158 15 40 153 15 38 149 15 37 
144 14 36 139 14 35 133 13 33 127 12 32 121 12 30 114 11 29 107 11 27 
99 10 25 91 9 23 82 8 20 71 7 18 59 6 15 43 4 11 82 82 82 82 82 82 
82 82 82 82 82 82 82 82 82 82 82 82 81 81 81 81 81 81 81 81 81 
81 81 81 81 81 81 81 81 81 81 81 81 81 81 81 81 81 81 80 80 80 
80 80 80 80 80 80 80 80 80 80 80 80 80 80 80 80 80 80 80 80 80 
80 80 80 79 79 79 79 79 79 79 79 79 79 79 79 79 79 79 79 79 79 
85 85 85 85 85 85 85 85 85 85 85 85 85 85 85 85 85 85 85 85 85 
85 85 85 85 85 85 85 85 85 85 85 85 85 85 85 85 85 85 85 85 85 
137 57 216 139 58 219 139 58 219 139 59 219 138 59 217 137 59 215 
135 58 212 133 57 208 130 56 204 127 55 199 123 53 193 118 50 186 
113 47 178 108 45 170 102 43 161 95 40 149 85 85 85 85 85 85 85 85 85 
85 85 85 85 85 85 85 85 85 85 85 85 85 85 85 85 85 85 156 15 39 
166 16 42 170 17 43 172 17 43 173 17 43 173 17 43 172 17 43 171 17 43 
169 17 42 167 16 42 164 16 41 162 16 41 158 16 40 155 15 39 151 15 38 
147 14 37 143 14 36 138 14 35 134 13 34 129 13 32 123 12 31 117 11 29 
111 11 28 104 10 26 97 10 24 90 9 23 81 8 20 72 7 18 62 6 16 50 5 13 
35 3 9 26 3 6 82 82 82 82 82 82 82 82 82 82 82 82 82 82 82 82 82 82 
82 82 82 82 82 82 81 81 81 81 81 81 81 81 81 81 81 81 81 81 81 
81 81 81 81 81 81 81 81 81 80 80 80 80 80 80 80 80 80 80 80 80 
80 80 80 80 80 80 80 80 80 80 80 80 80 80 80 79 79 79 79 79 79 
79 79 79 79 79 79 86 86 86 86 86 86 86 86 86 86 86 86 86 86 86 
86 86 86 86 86 86 86 86 86 86 86 86 86 86 86 86 86 86 86 86 86 
86 86 86 132 56 209 134 56 212 135 57 213 135 58 213 132 56 209 
131 55 206 132 57 207 130 57 203 127 56 199 121 51 191 122 53 190 
118 51 184 114 50 178 109 47 171 104 44 163 98 41 154 92 39 145 
85 36 133 85 85 85 85 85 85 85 85 85 85 85 85 85 85 85 85 85 85 
85 85 85 85 85 85 147 14 37 156 15 39 160 16 40 162 16 41 162 16 41 
162 16 41 162 16 41 160 16 40 158 16 40 156 15 39 154 15 39 151 15 38 
148 15 37 145 14 36 141 14 35 137 13 34 133 13 33 128 13 32 123 12 31 
118 12 30 113 11 28 107 10 27 101 10 25 94 9 24 87 9 22 80 8 20 
71 7 18 62 6 16 52 5 13 41 4 10 26 3 7 26 3 6 83 83 83 82 82 82 
82 82 82 82 82 82 82 82 82 82 82 82 82 82 82 82 82 82 82 82 82 
82 82 82 81 81 81 81 81 81 81 81 81 81 81 81 81 81 81 81 81 81 
81 81 81 81 81 81 81 81 81 80 80 80 80 80 80 80 80 80 80 80 80 
80 80 80 80 80 80 80 80 80 80 80 80 79 79 79 79 79 79 86 86 86 
86 86 86 86 86 86 86 86 86 86 86 86 86 86 86 86 86 86 86 86 86 
86 86 86 86 86 86 86 86 86 86 86 86 126 53 199 128 54 203 129 54 204 
130 56 205 130 56 204 124 51 197 123 51 195 137 67 208 138 69 208 
116 48 185 113 46 179 110 45 175 107 44 169 108 47 169 104 45 162 
99 43 155 93 40 146 87 37 137 81 34 127 73 31 115 86 86 86 86 86 86 
86 86 86 85 85 85 85 85 85 85 85 85 85 85 85 137 13 34 145 14 36 
149 15 37 151 15 38 151 15 38 151 15 38 151 15 38 149 15 37 148 14 37 
145 14 37 143 14 36 140 14 35 137 13 34 134 13 34 130 13 33 126 12 32 
122 12 31 117 12 29 113 11 28 108 11 27 102 10 26 97 9 24 90 9 23 
84 8 21 77 8 19 69 7 17 61 6 15 52 5 13 42 4 11 31 3 8 26 3 6 26 3 6 
83 83 83 83 83 83 83 83 83 82 82 82 82 82 82 82 82 82 82 82 82 
82 82 82 82 82 82 82 82 82 82 82 82 82 82 82 81 81 81 81 81 81 
81 81 81 81 81 81 81 81 81 81 81 81 81 81 81 81 81 81 81 81 81 
80 80 80 80 80 80 80 80 80 80 80 80 80 80 80 80 80 80 80 80 80 
80 80 80 86 86 86 86 86 86 86 86 86 86 86 86 86 86 86 86 86 86 
86 86 86 86 86 86 86 86 86 86 86 86 86 86 86 119 50 188 122 51 193 
124 52 195 125 53 196 125 54 195 119 49 189 118 48 187 136 68 204 
255 236 255 178 112 243 110 46 174 106 44 169 103 42 164 100 41 159 
97 40 153 93 38 147 93 41 145 88 38 137 82 35 128 75 32 119 78 29 109 
66 25 94 86 86 86 86 86 86 86 86 86 86 86 86 86 86 86 86 86 86 
126 12 32 134 13 34 137 13 34 139 14 35 140 14 35 140 14 35 139 14 35 
138 14 35 136 13 34 134 13 34 132 13 33 129 13 32 126 12 32 123 12 31 
119 12 30 115 11 29 111 11 28 107 10 27 102 10 26 97 9 24 91 9 23 
86 8 22 80 8 20 73 7 18 66 6 17 59 6 15 51 5 13 42 4 10 32 3 8 26 3 6 
26 3 6 26 3 6 83 83 83 83 83 83 83 83 83 83 83 83 83 83 83 82 82 82 
82 82 82 82 82 82 82 82 82 82 82 82 82 82 82 82 82 82 82 82 82 
82 82 82 81 81 81 81 81 81 81 81 81 81 81 81 81 81 81 81 81 81 
81 81 81 81 81 81 81 81 81 80 80 80 80 80 80 80 80 80 80 80 80 
80 80 80 80 80 80 86 86 86 86 86 86 86 86 86 86 86 86 86 86 86 
86 86 86 86 86 86 86 86 86 86 86 86 86 86 86 108 45 170 115 48 181 
116 49 184 117 49 184 114 47 182 113 47 180 112 46 178 111 46 176 
110 46 174 109 47 172 105 43 166 102 42 162 99 41 158 96 40 153 
93 38 148 90 37 142 86 35 137 82 34 130 82 36 127 75 32 118 69 30 109 
72 26 100 63 23 87 44 19 68 86 86 86 86 86 86 86 86 86 86 86 86 
86 86 86 114 11 29 121 12 30 125 12 31 127 12 32 128 13 32 128 13 32 
128 13 32 127 12 32 125 12 31 123 12 31 121 12 30 118 12 30 115 11 29 
112 11 28 108 11 27 104 10 26 100 10 25 96 9 24 91 9 23 86 8 22 
80 8 20 75 7 19 69 7 17 62 6 16 55 5 14 48 5 12 40 4 10 31 3 8 26 3 6 
26 3 6 26 3 6 26 3 6 83 83 83 83 83 83 83 83 83 83 83 83 83 83 83 
83 83 83 83 83 83 83 83 83 82 82 82 82 82 82 82 82 82 82 82 82 
82 82 82 82 82 82 82 82 82 82 82 82 82 82 82 81 81 81 81 81 81 
81 81 81 81 81 81 81 81 81 81 81 81 81 81 81 81 81 81 80 80 80 
80 80 80 80 80 80 80 80 80 86 86 86 86 86 86 87 87 87 87 87 87 
87 87 87 87 87 87 87 87 87 87 87 87 87 87 87 87 87 87 106 45 167 
109 46 172 111 47 174 108 44 171 107 44 171 106 44 169 105 43 167 
103 43 164 102 42 161 100 41 158 97 40 155 95 39 151 92 38 146 
89 37 142 86 35 137 83 34 131 79 32 125 75 31 119 71 29 112 70 31 108 
63 27 99 66 24 90 57 21 78 46 17 63 86 86 86 86 86 86 86 86 86 
86 86 86 86 86 86 101 10 25 109 11 27 113 11 28 115 11 29 116 11 29 
116 11 29 116 11 29 115 11 29 113 11 28 111 11 28 109 11 27 106 10 27 
103 10 26 100 10 25 97 9 24 93 9 23 89 9 22 84 8 21 80 8 20 75 7 19 
69 7 17 64 6 16 57 6 14 51 5 13 44 4 11 36 4 9 28 3 7 26 3 6 26 3 6 
26 3 6 26 3 6 26 3 6 84 84 84 83 83 83 83 83 83 83 83 83 74 220 81 
75 222 81 73 218 80 70 209 77 65 194 71 83 83 83 82 82 82 82 82 82 
82 82 82 82 82 82 82 82 82 82 82 82 82 82 82 82 82 82 82 82 82 
81 81 81 81 81 81 81 81 81 81 81 81 81 81 81 81 81 81 81 81 81 
81 81 81 80 80 80 80 80 80 87 87 87 87 87 87 87 87 87 87 87 87 
87 87 87 87 87 87 87 87 87 87 87 87 87 87 87 93 41 145 100 42 158 
102 43 161 103 43 162 101 41 160 100 41 159 99 41 157 98 40 155 
96 40 153 94 39 150 92 38 147 90 37 143 87 36 139 85 35 135 82 34 130 
79 32 125 75 31 120 72 29 114 68 28 108 64 26 101 63 28 97 57 25 88 
58 21 79 50 18 68 40 14 54 23 8 32 86 86 86 86 86 86 86 86 86 
86 86 86 86 8 22 96 9 24 100 10 25 103 10 26 104 10 26 104 10 26 
104 10 26 103 10 26 101 10 25 100 10 25 97 10 24 95 9 24 92 9 23 
89 9 22 85 8 21 81 8 20 77 8 19 73 7 18 68 7 17 63 6 16 58 6 14 
52 5 13 46 5 12 39 4 10 32 3 8 26 3 6 26 3 6 26 3 6 26 3 6 26 3 6 
26 3 6 26 3 6 84 84 84 84 84 84 76 226 82 78 232 85 78 231 85 
76 227 83 74 221 81 72 214 78 69 204 75 65 192 70 59 176 65 83 83 83 
82 82 82 82 82 82 82 82 82 82 82 82 82 82 82 82 82 82 82 82 82 
82 82 82 82 82 82 81 81 81 81 81 81 81 81 81 81 81 81 81 81 81 
81 81 81 81 81 81 81 81 81 108 108 108 108 108 108 108 108 108 
108 108 108 108 108 108 108 108 108 108 108 108 108 108 108 
108 108 108 89 38 140 93 40 147 95 40 150 94 39 149 93 38 148 
93 38 147 92 38 146 90 37 143 89 36 141 87 36 138 85 35 135 82 34 131 
80 33 127 77 32 123 74 31 118 71 29 113 68 28 108 64 26 102 60 25 96 
56 23 89 52 21 82 49 22 77 43 19 67 42 15 57 33 12 44 21 7 26 
108 108 108 108 108 108 108 108 108 108 108 108 70 7 18 81 8 20 
87 8 22 90 9 22 91 9 23 92 9 23 91 9 23 90 9 23 89 9 22 87 9 22 
85 8 21 83 8 21 80 8 20 77 8 19 73 7 18 69 7 17 65 6 16 61 6 15 
56 6 14 51 5 13 46 5 12 40 4 10 34 3 9 28 3 7 26 3 6 26 3 6 26 3 6 
26 3 6 26 3 6 26 3 6 26 3 6 26 3 6 70 207 75 76 224 81 81 227 83 
78 229 85 78 228 85 77 224 84 72 216 79 73 211 79 70 202 76 65 191 71 
60 177 65 54 160 59 46 136 50 103 103 103 103 103 103 103 103 103 
103 103 103 103 103 103 103 103 103 103 103 103 103 103 103 
103 103 103 102 102 102 102 102 102 102 102 102 102 102 102 
102 102 102 102 102 102 102 102 102 110 110 110 110 110 110 
110 110 110 110 110 110 110 110 110 110 110 110 110 110 110 
110 110 110 110 110 110 83 35 130 86 37 136 88 38 139 86 35 137 
86 35 136 85 35 135 84 35 133 83 34 131 81 33 129 79 33 126 77 32 122 
75 31 119 72 30 115 70 29 111 67 27 106 64 26 101 60 25 96 57 23 90 
53 22 84 49 20 77 44 18 70 42 19 65 35 16 55 33 12 45 25 9 33 18 6 23 
110 110 110 110 110 110 110 110 110 110 110 110 51 5 13 66 6 17 
73 7 18 76 7 19 78 8 20 79 8 20 78 8 20 78 8 20 77 8 19 75 7 19 
73 7 18 70 7 18 68 7 17 65 6 16 61 6 15 57 6 14 53 5 13 49 5 12 
44 4 11 39 4 10 34 3 9 28 3 7 26 3 6 26 3 6 26 3 6 26 3 6 26 3 6 
26 3 6 26 3 6 26 3 6 26 3 6 66 195 71 72 214 77 77 219 80 76 223 83 
74 220 81 76 220 83 69 210 76 67 204 74 65 197 71 62 189 68 64 184 70 
60 172 65 54 157 59 47 139 51 39 114 42 105 105 105 105 105 105 
105 105 105 105 105 105 105 105 105 105 105 105 105 105 105 
104 104 104 104 104 104 104 104 104 104 104 104 104 104 104 
104 104 104 104 104 104 104 104 104 112 112 112 112 112 112 
112 112 112 112 112 112 112 112 112 112 112 112 112 112 112 
112 112 112 112 112 112 78 34 121 79 33 124 80 34 126 78 32 124 
78 32 124 77 32 123 76 31 121 75 31 119 73 30 116 71 29 113 69 29 110 
67 28 106 65 27 103 62 25 98 59 24 94 56 23 89 52 22 83 49 20 78 
45 19 72 41 17 65 36 15 58 31 13 50 28 13 43 24 8 32 18 6 23 18 6 23 
111 111 111 111 111 111 111 111 111 111 111 111 111 111 111 50 5 12 
57 6 14 62 6 15 64 6 16 65 6 16 65 6 16 65 6 16 64 6 16 62 6 16 
60 6 15 58 6 15 55 5 14 52 5 13 49 5 12 45 4 11 41 4 10 37 4 9 32 3 8 
27 3 7 26 3 6 26 3 6 26 3 6 26 3 6 26 3 6 26 3 6 26 3 6 26 3 6 26 3 6 
26 3 6 26 3 6 67 199 72 71 207 75 78 210 78 73 213 80 68 207 75 
135 255 141 108 241 114 64 193 70 61 186 67 59 178 64 56 168 61 
52 157 57 52 149 57 46 133 50 39 113 42 28 82 31 107 107 107 
107 107 107 107 107 107 107 107 107 106 106 106 106 106 106 
106 106 106 106 106 106 106 106 106 106 106 106 106 106 106 
106 106 106 105 105 105 105 105 105 114 114 114 114 114 114 
114 114 114 114 114 114 114 114 114 114 114 114 114 114 114 
114 114 114 114 114 114 71 32 110 72 31 112 70 29 111 70 29 112 
70 29 111 69 29 110 68 28 108 67 28 106 65 27 104 63 26 101 61 25 97 
59 24 94 57 23 90 54 22 86 51 21 81 48 20 76 45 18 71 41 17 65 
37 15 59 33 14 52 28 12 45 23 10 37 23 20 34 16 6 23 17 6 23 17 6 23 
113 113 113 113 113 113 113 113 113 113 113 113 113 113 113 30 3 8 
41 4 10 47 5 12 49 5 12 51 5 13 51 5 13 51 5 13 50 5 13 49 5 12 
47 5 12 45 4 11 42 4 11 39 4 10 36 4 9 32 3 8 28 3 7 26 3 6 26 3 6 
26 3 6 26 3 6 26 3 6 26 3 6 26 3 6 26 3 6 26 3 6 26 3 6 26 3 6 26 3 6 
26 3 6 59 176 64 64 190 69 68 196 71 69 200 75 65 196 71 64 194 70 
76 204 82 63 187 69 59 180 65 57 173 62 54 165 60 52 156 56 48 146 53 
44 134 48 40 120 43 36 105 40 29 82 31 108 108 108 108 108 108 
108 108 108 108 108 108 108 108 108 108 108 108 108 108 108 
108 108 108 107 107 107 107 107 107 107 107 107 107 107 107 
107 107 107 107 107 107 115 115 115 115 115 115 115 115 115 
115 115 115 115 115 115 115 115 115 115 115 115 115 115 115 
115 115 115 63 29 97 66 31 102 67 30 103 67 30 103 66 29 102 
64 28 100 63 27 98 59 24 93 57 24 91 55 23 88 53 22 85 51 21 81 
49 20 77 46 19 73 43 18 68 42 18 65 39 18 61 36 17 56 33 16 50 
29 14 43 25 13 36 20 11 29 16 12 25 15 6 23 15 6 23 15 6 23 
114 114 114 114 114 114 114 114 114 114 114 114 114 114 114 
114 114 114 26 3 6 30 3 8 34 3 9 36 4 9 37 4 9 37 4 9 36 4 9 35 3 9 
34 3 8 31 3 8 29 3 7 26 3 6 26 3 6 26 3 6 26 3 6 26 3 6 26 3 6 26 3 6 
26 3 6 26 3 6 26 3 6 26 3 6 26 3 6 26 3 6 26 3 6 26 3 6 26 3 6 26 3 6 
57 168 61 60 178 65 66 183 67 64 187 70 60 182 66 59 180 65 58 176 64 
57 171 62 55 165 60 52 159 57 50 151 54 47 142 51 44 132 48 40 121 44 
36 108 39 32 94 35 26 74 28 15 42 16 110 110 110 109 109 109 
109 109 109 109 109 109 109 109 109 109 109 109 109 109 109 
109 109 109 109 109 109 109 109 109 108 108 108 108 108 108 
108 108 108 117 117 117 117 117 117 117 117 117 117 117 117 
117 117 117 117 117 117 116 116 116 116 116 116 116 116 116 54 26 83 
58 27 88 58 27 90 59 27 90 59 27 90 58 27 89 57 27 88 56 26 85 
54 25 83 52 25 80 50 24 77 48 23 73 45 22 69 43 21 65 40 19 60 
37 18 55 33 17 50 30 15 44 26 13 38 21 12 31 19 11 27 19 11 27 
15 7 23 20 12 28 15 6 23 15 6 23 115 115 115 115 115 115 115 115 115 
115 115 115 115 115 115 115 115 115 26 3 6 26 3 6 26 3 6 26 3 6 
26 3 6 26 3 6 26 3 6 26 3 6 26 3 6 26 3 6 26 3 6 26 3 6 26 3 6 26 3 6 
26 3 6 26 3 6 26 3 6 26 3 6 26 3 6 26 3 6 26 3 6 26 3 6 26 3 6 26 3 6 
26 3 6 26 3 6 26 3 6 26 3 6 53 156 56 55 164 59 57 169 63 55 168 61 
55 167 60 54 164 59 53 161 58 52 156 56 50 150 54 47 144 52 45 136 49 
42 127 46 39 118 42 35 106 38 31 94 34 26 79 28 22 62 24 13 36 14 
111 111 111 111 111 111 111 111 111 110 110 110 110 110 110 
110 110 110 110 110 110 110 110 110 110 110 110 110 110 110 
110 110 110 109 109 109 109 109 109 118 118 118 118 118 118 
118 118 118 118 118 118 118 118 118 118 118 118 118 118 118 
117 117 117 117 117 117 45 22 67 49 24 74 51 25 77 50 24 76 50 24 76 
49 23 75 48 23 74 47 23 72 46 22 69 44 21 67 42 20 63 40 19 60 
37 18 56 34 17 51 31 16 47 28 15 42 25 13 36 21 12 31 19 11 27 
19 11 27 19 11 27 19 11 27 19 11 28 17 9 25 15 6 23 15 6 23 
116 116 116 116 116 116 116 116 116 116 116 116 116 116 116 
116 116 116 116 116 116 26 3 6 26 3 6 26 3 6 26 3 6 26 3 6 26 3 6 
26 3 6 26 3 6 26 3 6 26 3 6 26 3 6 26 3 6 26 3 6 26 3 6 26 3 6 26 3 6 
26 3 6 26 3 6 26 3 6 26 3 6 26 3 6 26 3 6 26 3 6 26 3 6 26 3 6 26 3 6 
40 118 43 47 140 51 50 148 54 51 151 56 50 151 55 50 150 54 49 148 53 
48 144 52 46 140 50 44 134 48 42 128 46 40 120 43 37 111 40 34 102 37 
30 91 33 26 78 28 21 64 23 17 48 18 10 25 10 112 112 112 112 112 112 
112 112 112 111 111 111 111 111 111 111 111 111 111 111 111 
111 111 111 111 111 111 111 111 111 111 111 111 111 111 111 
110 110 110 119 119 119 118 118 118 118 118 118 118 118 118 
118 118 118 118 118 118 118 118 118 118 118 118 118 118 118 34 17 50 
39 20 58 41 21 62 41 20 62 41 20 62 40 20 61 40 19 60 38 19 58 
37 18 56 35 18 53 33 17 50 31 16 46 28 15 42 26 14 38 23 12 33 
20 11 28 19 11 28 19 11 28 19 11 28 19 11 27 19 11 27 20 13 28 
19 12 28 20 11 28 17 8 24 20 12 28 117 117 117 117 117 117 
117 117 117 117 117 117 117 117 117 117 117 117 117 117 117 
117 117 117 26 3 6 26 3 6 26 3 6 26 3 6 26 3 6 26 3 6 26 3 6 26 3 6 
26 3 6 26 3 6 26 3 6 26 3 6 26 3 6 26 3 6 26 3 6 26 3 6 26 3 6 26 3 6 
26 3 6 26 3 6 26 3 6 26 3 6 26 3 6 26 3 6 115 115 115 35 101 37 
42 122 44 44 130 48 45 134 49 44 134 48 44 133 48 43 131 47 42 127 46 
40 123 44 39 117 42 37 111 40 34 103 37 31 95 34 28 85 31 25 74 27 
20 62 22 16 47 17 14 34 15 13 28 14 113 113 113 113 113 113 
112 112 112 112 112 112 112 112 112 112 112 112 112 112 112 
112 112 112 112 112 112 112 112 112 112 112 112 111 111 111 
111 111 111 119 119 119 119 119 119 119 119 119 119 119 119 
119 119 119 119 119 119 119 119 119 119 119 119 119 119 119 20 12 28 
28 15 42 31 17 46 31 16 47 32 16 47 31 16 47 31 16 45 29 15 44 
28 15 41 26 14 39 24 13 35 22 12 32 20 11 28 19 11 28 19 11 28 
19 11 28 19 11 28 19 11 28 19 11 28 19 11 28 19 11 27 21 16 29 
20 11 28 20 11 28 17 8 24 118 118 118 118 118 118 118 118 118 
118 118 118 118 118 118 118 118 118 117 117 117 117 117 117 
117 117 117 26 3 6 26 3 6 26 3 6 26 3 6 26 3 6 26 3 6 26 3 6 26 3 6 
26 3 6 26 3 6 26 3 6 26 3 6 26 3 6 26 3 6 26 3 6 26 3 6 26 3 6 26 3 6 
26 3 6 26 3 6 26 3 6 26 3 6 26 3 6 115 115 115 115 115 115 27 78 28 
35 102 37 39 113 43 41 117 44 43 120 47 43 120 47 42 118 46 41 114 45 
40 110 43 38 104 41 36 98 38 33 90 36 30 82 33 27 72 29 23 61 25 
19 49 21 14 34 15 13 29 14 13 29 14 113 113 113 113 113 113 
113 113 113 113 113 113 113 113 113 113 113 113 113 113 113 
113 113 113 113 113 113 113 113 113 112 112 112 112 112 112 
112 112 112 120 120 120 120 120 120 120 120 120 120 120 120 
120 120 120 120 120 120 120 120 120 120 120 120 120 120 120 
120 120 120 20 12 29 21 12 29 23 14 33 22 12 32 22 12 32 21 12 30 
20 11 29 19 11 28 19 11 28 19 11 28 19 11 28 19 11 28 19 11 28 
19 11 28 19 11 28 19 11 28 19 11 28 19 11 28 19 11 28 21 13 29 
21 12 29 20 11 28 20 11 28 20 12 28 118 118 118 118 118 118 
118 118 118 118 118 118 118 118 118 118 118 118 118 118 118 
118 118 118 118 118 118 118 118 118 118 118 118 26 3 6 26 3 6 26 3 6 
26 3 6 26 3 6 26 3 6 26 3 6 26 3 6 26 3 6 26 3 6 26 3 6 26 3 6 26 3 6 
26 3 6 26 3 6 26 3 6 26 3 6 26 3 6 26 3 6 26 3 6 57 57 57 57 57 57 
57 57 57 57 57 57 29 82 31 35 95 38 36 99 40 37 100 39 36 100 39 
36 98 39 35 95 37 33 90 36 32 85 34 29 79 32 27 72 29 24 63 26 
21 54 22 17 43 19 13 30 14 12 28 13 13 29 14 13 29 14 114 114 114 
114 114 114 114 114 114 114 114 114 114 114 114 114 114 114 
114 114 114 113 113 113 113 113 113 113 113 113 113 113 113 
113 113 113 113 113 113 120 120 120 120 120 120 120 120 120 
120 120 120 120 120 120 120 120 120 120 120 120 120 120 120 
120 120 120 120 120 120 20 12 28 20 12 29 21 12 29 21 13 30 19 11 28 
19 11 28 19 11 28 19 11 28 19 11 28 19 11 28 19 11 28 19 11 28 
19 11 28 19 11 28 19 11 28 19 11 28 19 11 28 19 11 28 19 11 28 
21 13 29 20 11 28 20 11 28 17 8 24 119 119 119 119 119 119 
119 119 119 119 119 119 119 119 119 119 119 119 119 119 119 
119 119 119 119 119 119 119 119 119 118 118 118 118 118 118 
118 118 118 26 3 6 26 3 6 26 3 6 26 3 6 26 3 6 26 3 6 26 3 6 26 3 6 
26 3 6 26 3 6 26 3 6 26 3 6 26 3 6 26 3 6 26 3 6 26 3 6 26 3 6 26 3 6 
57 57 57 57 57 57 57 57 57 57 57 57 57 57 57 20 55 21 28 71 29 
29 77 32 29 79 32 29 79 32 29 77 31 28 74 30 27 70 29 25 65 27 
23 59 24 20 52 22 18 43 19 14 34 15 13 28 13 13 28 13 12 28 13 
14 29 14 13 29 14 115 115 115 115 115 115 115 115 115 115 115 115 
114 114 114 114 114 114 114 114 114 114 114 114 114 114 114 
114 114 114 114 114 114 114 114 114 114 114 114 121 121 121 
121 121 121 121 121 121 121 121 121 121 121 121 121 121 121 
121 121 121 121 121 121 121 121 121 121 121 121 121 121 121 20 12 29 
20 12 29 21 13 29 20 12 29 19 11 28 19 11 28 19 11 28 19 11 28 
19 11 28 19 11 28 19 11 28 19 11 28 19 11 28 19 11 28 19 11 28 
19 11 28 19 11 28 21 13 30 21 11 28 17 8 24 17 8 24 17 9 25 
120 120 120 119 119 119 119 119 119 119 119 119 119 119 119 
119 119 119 119 119 119 119 119 119 119 119 119 119 119 119 
119 119 119 57 57 57 57 57 57 57 57 57 57 57 57 26 3 6 26 3 6 26 3 6 
26 3 6 26 3 6 26 3 6 26 3 6 26 3 6 26 3 6 26 3 6 26 3 6 26 3 6 26 3 6 
26 3 6 57 57 57 57 57 57 57 57 57 57 57 57 57 57 57 57 57 57 57 57 57 
10 26 11 19 45 20 21 53 22 24 58 25 22 57 24 22 55 23 21 53 22 
20 49 21 18 44 19 16 38 17 13 31 14 13 28 13 13 28 13 13 28 13 
13 28 13 14 30 15 13 29 14 115 115 115 115 115 115 115 115 115 
115 115 115 115 115 115 115 115 115 115 115 115 115 115 115 
115 115 115 115 115 115 115 115 115 114 114 114 114 114 114 
114 114 114 121 121 121 121 121 121 121 121 121 121 121 121 
121 121 121 121 121 121 121 121 121 121 121 121 121 121 121 
121 121 121 121 121 121 121 121 121 20 12 29 20 12 29 21 13 29 
22 13 30 19 11 28 19 11 28 20 12 29 27 19 36 24 15 32 19 11 28 
19 11 28 19 11 28 19 11 28 19 11 28 22 13 30 18 10 27 20 8 25 18 8 25 
17 8 24 17 9 25 120 120 120 120 120 120 120 120 120 120 120 120 
120 120 120 120 120 120 120 120 120 120 120 120 120 120 120 
119 119 119 119 119 119 57 57 57 57 57 57 57 57 57 57 57 57 57 57 57 
57 57 57 57 57 57 26 3 6 26 3 6 26 3 6 26 3 6 26 3 6 26 3 6 26 3 6 
26 3 6 26 3 6 26 3 6 57 57 57 57 57 57 57 57 57 57 57 57 57 57 57 
57 57 57 57 57 57 57 57 57 57 57 57 57 57 57 13 28 13 13 28 13 
15 31 15 14 32 15 14 32 15 14 30 15 13 28 13 13 28 13 13 28 13 
13 28 13 13 28 13 13 28 13 13 28 13 13 28 13 14 29 15 10 26 11 
116 116 116 116 116 116 116 116 116 116 116 116 116 116 116 
116 116 116 115 115 115 115 115 115 115 115 115 115 115 115 
115 115 115 115 115 115 115 115 115 115 115 115 122 122 122 
122 122 122 122 122 122 122 122 122 122 122 122 122 122 122 
122 122 122 122 122 122 122 122 122 121 121 121 121 121 121 
121 121 121 121 121 121 20 12 29 20 12 29 21 13 29 22 13 30 22 13 30 
19 11 28 20 12 29 21 12 29 20 11 28 20 11 28 20 11 28 16 8 25 16 8 25 
16 8 25 17 8 25 19 8 25 18 8 25 17 9 25 57 57 57 57 57 57 57 57 57 
57 57 57 57 57 57 57 57 57 120 120 120 120 120 120 120 120 120 
120 120 120 120 120 120 120 120 120 120 120 120 57 57 57 57 57 57 
57 57 57 57 57 57 57 57 57 51 40 41 51 40 41 51 40 41 51 40 41 
51 40 41 51 40 41 51 40 41 51 40 41 51 40 41 51 40 41 51 40 41 
57 57 57 57 57 57 57 57 57 57 57 57 57 57 57 57 57 57 57 57 57 
57 57 57 57 57 57 57 57 57 57 57 57 13 28 13 13 28 13 16 29 14 
15 31 16 16 32 17 14 29 14 13 28 13 13 28 13 13 28 13 13 28 13 
13 28 13 14 29 14 11 27 12 10 26 11 117 117 117 116 116 116 
116 116 116 116 116 116 116 116 116 116 116 116 116 116 116 
116 116 116 116 116 116 116 116 116 116 116 116 116 116 116 
115 115 115 115 115 115 115 115 115 122 122 122 122 122 122 
122 122 122 122 122 122 122 122 122 122 122 122 122 122 122 
122 122 122 122 122 122 122 122 122 122 122 122 122 122 122 
122 122 122 122 122 122 17 9 25 17 9 25 16 8 25 16 8 25 16 8 25 
16 8 25 16 8 25 16 8 25 16 8 25 16 8 25 16 8 25 16 8 25 17 8 25 
17 8 25 16 8 25 17 9 25 57 57 57 57 57 57 57 57 57 57 57 57 57 57 57 
57 57 57 57 57 57 57 57 57 57 57 57 57 57 57 120 120 120 120 120 120 
120 120 120 120 120 120 120 120 120 120 120 120 120 120 120 
113 102 104 51 40 41 51 40 41 51 40 41 51 40 41 51 40 41 51 40 41 
51 40 41 51 40 41 51 40 41 51 40 41 51 40 41 51 40 41 51 40 41 
51 40 41 57 57 57 57 57 57 57 57 57 57 57 57 57 57 57 57 57 57 
57 57 57 57 57 57 57 57 57 57 57 57 13 28 13 13 29 14 13 29 14 
13 29 13 13 29 13 13 29 13 13 29 13 13 29 13 15 30 16 12 27 12 
11 26 12 10 26 11 57 57 57 57 57 57 57 57 57 117 117 117 117 117 117 
117 117 117 117 117 117 116 116 116 116 116 116 116 116 116 
116 116 116 116 116 116 116 116 116 116 116 116 116 116 116 
116 116 116 122 122 122 122 122 122 122 122 122 122 122 122 
122 122 122 122 122 122 122 122 122 122 122 122 122 122 122 
122 122 122 122 122 122 122 122 122 122 122 122 57 57 57 57 57 57 
57 57 57 16 8 25 17 8 25 16 8 25 16 8 25 16 8 25 16 8 25 16 8 25 
16 8 25 16 8 25 16 8 25 16 8 25 16 8 25 57 57 57 57 57 57 57 57 57 
57 57 57 57 57 57 57 57 57 57 57 57 57 57 57 57 57 57 57 57 57 
57 57 57 57 57 57 121 121 121 120 120 120 120 120 120 120 120 120 
120 120 120 120 120 120 114 102 104 114 102 104 114 102 104 
114 102 104 114 102 104 113 102 104 113 102 104 113 102 104 
113 102 104 113 102 104 113 102 104 113 102 103 113 101 103 
113 101 103 113 101 103 113 101 103 113 101 103 113 101 103 
119 119 119 119 119 119 119 119 119 119 119 119 119 119 119 
119 119 119 118 118 118 57 57 57 57 57 57 10 26 10 10 26 11 10 26 11 
10 26 11 10 26 11 10 26 11 10 26 10 10 26 10 10 26 11 10 26 11 
57 57 57 57 57 57 57 57 57 57 57 57 57 57 57 57 57 57 57 57 57 
57 57 57 117 117 117 117 117 117 117 117 117 117 117 117 117 117 117 
116 116 116 116 116 116 116 116 116 116 116 116 123 123 123 
123 123 123 123 123 123 123 123 123 122 122 122 122 122 122 
122 122 122 122 122 122 122 122 122 122 122 122 122 122 122 
122 122 122 57 57 57 57 57 57 57 57 57 57 57 57 57 57 57 57 57 57 
57 57 57 16 8 25 16 8 25 16 8 25 16 8 25 16 8 25 16 8 25 46 42 50 
57 57 57 57 57 57 57 57 57 57 57 57 57 57 57 57 57 57 57 57 57 
57 57 57 57 57 57 57 57 57 57 57 57 57 57 57 57 57 57 121 121 121 
121 121 121 121 121 121 121 121 121 121 121 121 114 103 105 
114 103 105 114 103 104 114 102 104 114 102 104 114 102 104 
114 102 104 114 102 104 114 102 104 114 102 104 114 102 104 
113 102 104 113 102 104 113 102 104 113 102 104 113 102 104 
113 102 104 113 102 103 113 101 103 113 101 103 113 101 103 
119 119 119 119 119 119 119 119 119 119 119 119 119 119 119 
119 119 119 57 57 57 57 57 57 57 57 57 57 57 57 45 53 45 10 26 10 
10 26 10 10 26 10 10 26 10 57 57 57 57 57 57 57 57 57 57 57 57 
57 57 57 57 57 57 57 57 57 57 57 57 57 57 57 57 57 57 57 57 57 
117 117 117 117 117 117 117 117 117 117 117 117 117 117 117 
117 117 117 117 117 117 117 117 117 117 117 117 123 123 123 
123 123 123 123 123 123 123 123 123 123 123 123 123 123 123 
123 123 123 123 123 123 123 123 123 122 122 122 122 122 122 
122 122 122 122 122 122 57 57 57 57 57 57 57 57 57 57 57 57 46 42 50 
47 43 51 46 42 51 46 42 51 46 42 51 46 42 51 46 42 51 46 42 51 
46 42 51 46 42 51 47 43 51 46 42 50 57 57 57 57 57 57 57 57 57 
57 57 57 57 57 57 57 57 57 57 57 57 121 121 121 121 121 121 
121 121 121 121 121 121 121 121 121 121 121 121 121 121 121 
114 103 105 114 103 105 114 103 105 114 103 105 114 103 105 
114 103 105 114 103 105 114 103 104 114 102 104 114 102 104 
114 102 104 114 102 104 114 102 104 114 102 104 114 102 104 
114 102 104 113 102 104 113 102 104 113 102 104 113 102 104 
113 102 104 113 102 104 113 102 103 119 119 119 119 119 119 
119 119 119 119 119 119 119 119 119 119 119 119 119 119 119 
105 113 105 43 51 43 43 51 43 43 51 43 43 51 43 43 51 43 43 51 43 
43 51 44 45 53 45 57 57 57 57 57 57 57 57 57 57 57 57 57 57 57 
57 57 57 57 57 57 57 57 57 118 118 118 118 118 118 117 117 117 
117 117 117 117 117 117 117 117 117 117 117 117 117 117 117 
117 117 117 117 117 117 123 123 123 123 123 123 123 123 123 
123 123 123 123 123 123 123 123 123 123 123 123 123 123 123 
123 123 123 123 123 123 123 123 123 123 123 123 123 123 123 
123 123 123 122 122 122 122 122 122 47 43 51 47 43 51 46 42 51 
46 42 51 46 42 51 46 42 51 46 42 51 46 42 51 46 42 51 46 42 51 
46 42 51 46 42 51 47 43 51 47 43 51 57 57 57 122 122 122 122 122 122 
122 122 122 122 122 122 121 121 121 121 121 121 121 121 121 
121 121 121 121 121 121 121 121 121 121 121 121 115 103 105 
115 103 105 115 103 105 115 103 105 114 103 105 114 103 105 
114 103 105 114 103 105 114 103 105 114 103 105 114 103 105 
114 103 104 114 102 104 114 102 104 114 102 104 114 102 104 
114 102 104 114 102 104 114 102 104 114 102 104 113 102 104 
113 102 104 113 102 104 113 102 104 113 102 104 120 120 120 
119 119 119 119 119 119 119 119 119 105 113 106 107 114 107 
105 112 105 105 113 105 105 113 105 105 113 105 105 112 105 
105 112 105 104 112 105 104 112 105 105 112 105 105 112 105 
118 118 118 118 118 118 118 118 118 118 118 118 118 118 118 
118 118 118 118 118 118 118 118 118 118 118 118 118 118 118 
118 118 118 118 118 118 118 118 118 117 117 117 117 117 117 
117 117 117 117 117 117 123 123 123 123 123 123 123 123 123 
123 123 123 123 123 123 123 123 123 123 123 123 123 123 123 
123 123 123 123 123 123 123 123 123 123 123 123 123 123 123 
123 123 123 113 109 117 112 108 116 112 108 116 112 107 116 
112 107 116 111 107 116 111 107 116 111 107 116 111 107 116 
111 107 116 111 107 116 111 107 115 111 107 115 111 107 115 
111 107 115 111 107 115 111 107 115 111 107 115 122 122 122 
122 122 122 122 122 122 122 122 122 122 122 122 122 122 122 
121 121 121 121 121 121 121 121 121 121 121 121 115 103 105 
115 103 105 115 103 105 115 103 105 115 103 105 115 103 105 
115 103 105 114 103 105 114 103 105 114 103 105 114 103 105 
114 103 105 114 103 105 114 103 105 114 103 105 114 102 104 
114 102 104 114 102 104 114 102 104 114 102 104 114 102 104 
114 102 104 114 102 104 113 102 104 113 102 104 113 102 104 
120 120 120 120 120 120 107 115 107 107 114 107 107 114 107 
107 114 107 107 114 107 105 113 105 105 113 105 105 113 105 
105 113 105 105 113 105 105 113 105 105 113 105 105 113 105 
105 112 105 119 119 119 119 119 119 118 118 118 118 118 118 
118 118 118 118 118 118 118 118 118 118 118 118 118 118 118 
118 118 118 118 118 118 118 118 118 118 118 118 118 118 118 
118 118 118 117 117 117 
